<?xml version="1.0" encoding="utf-8"?>
<svg xml:space="preserve" viewBox="0 0 100 100" y="0" x="0" xmlns="http://www.w3.org/2000/svg" id="圖層_1" version="1.1" width="128px" height="128px" xmlns:xlink="http://www.w3.org/1999/xlink" style="width:100%;height:100%;background-size:initial;background-repeat-y:initial;background-repeat-x:initial;background-position-y:initial;background-position-x:initial;background-origin:initial;background-image:initial;background-color:white;background-clip:initial;background-attachment:initial;animation-play-state:paused" ><g class="ldl-scale" style="transform-origin:50% 50%;transform:rotate(0deg) scale(0.8, 0.8);animation-play-state:paused" >
<path fill="#666" d="M85.3 70.4V37.2c0-1.4-1.1-2.5-2.5-2.5h-7.5c-1.4 0-2.5 1.1-2.5 2.5v33.2h-7V37.2c0-1.4-1.1-2.5-2.5-2.5h-7.5c-1.4 0-2.5 1.1-2.5 2.5v33.2h-6.8V37.2c0-1.4-1.1-2.5-2.5-2.5h-7.5c-1.4 0-2.5 1.1-2.5 2.5v33.2h-7V37.2c0-1.4-1.1-2.5-2.5-2.5H17c-1.4 0-2.5 1.1-2.5 2.5v33.2h-2.2c-1.2 0-2.2 1-2.2 2.2V74c0 1.2 1 2.2 2.2 2.2h75.2c1.2 0 2.2-1 2.2-2.2v-1.3c0-1.2-1-2.2-2.2-2.2h-2.2z" style="fill:rgb(29, 63, 114);animation-play-state:paused" ></path>
<path fill="#333" d="M90.1 90.2H9.9c-1.1 0-2-.9-2-2v-6c0-1.1.9-2 2-2h80.3c1.1 0 2 .9 2 2v6c-.1 1.1-1 2-2.1 2z" style="fill:rgb(86, 153, 210);animation-play-state:paused" ></path>
<path d="M91.2 25.7c2.3 1.2 1.5 4.9-1 4.9H9.8c-2.5 0-3.3-3.7-1-4.9L47 10.6c1.9-1 4.1-1 6 0l38.2 15.1z" style="fill:rgb(216, 235, 249);animation-play-state:paused" ></path>
<metadata xmlns:d="https://loading.io/stock/" style="animation-play-state:paused" ><d:name style="animation-play-state:paused" >institute</d:name>
<d:tags style="animation-play-state:paused" >bank,house,company,industry,school,court,institute,web application</d:tags>
<d:license style="animation-play-state:paused" >pro</d:license>
<d:slug style="animation-play-state:paused" >bgd0il</d:slug></metadata></g><!-- generated by https://loading.io/ --></svg>